<svg width="763" height="572" viewBox="0 0 763 572" fill="none" xmlns="http://www.w3.org/2000/svg">
<path d="M3 486.5V86H760V486.5H446.135V569.5H387.188V486.5H278.5H3Z" stroke="#F6871E" stroke-width="5"/>
<rect x="454" y="373" width="302" height="111" fill="#D9D9D9" stroke="black" stroke-width="2"/>
<mask id="path-3-inside-1_67_2" fill="white">
<path d="M286 338H275V426H229V485H6V358H73V287H164V256H286V338Z"/>
</mask>
<path d="M286 338H275V426H229V485H6V358H73V287H164V256H286V338Z" fill="#D9D9D9"/>
<path d="M286 338V340H288V338H286ZM275 338V336H273V338H275ZM275 426V428H277V426H275ZM229 426V424H227V426H229ZM229 485V487H231V485H229ZM6 485H4V487H6V485ZM6 358V356H4V358H6ZM73 358V360H75V358H73ZM73 287V285H71V287H73ZM164 287V289H166V287H164ZM164 256V254H162V256H164ZM286 256H288V254H286V256ZM286 338V336H275V338V340H286V338ZM275 338H273V426H275H277V338H275ZM275 426V424H229V426V428H275V426ZM229 426H227V485H229H231V426H229ZM229 485V483H6V485V487H229V485ZM6 485H8V358H6H4V485H6ZM6 358V360H73V358V356H6V358ZM73 358H75V287H73H71V358H73ZM73 287V289H164V287V285H73V287ZM164 287H166V256H164H162V287H164ZM164 256V258H286V256V254H164V256ZM286 256H284V338H286H288V256H286Z" fill="black" mask="url(#path-3-inside-1_67_2)"/>
<rect x="496" y="260" width="112" height="68" fill="#D9D9D9" stroke="black" stroke-width="2"/>
<rect x="274" y="337" width="64" height="43" fill="#D9D9D9" stroke="black" stroke-width="2"/>
<rect x="608" y="260" width="63" height="68" fill="#D9D9D9" stroke="black" stroke-width="2"/>
<rect x="671" y="260" width="85" height="68" fill="#D9D9D9" stroke="black" stroke-width="2"/>
<rect x="601" y="92" width="155" height="142" fill="#D9D9D9" stroke="black" stroke-width="2"/>
<rect x="276" y="92" width="326" height="142" fill="#D9D9D9" stroke="black" stroke-width="2"/>
<rect x="713" y="328" width="43" height="45" fill="#D9D9D9" stroke="black" stroke-width="2"/>
<path d="M261 480H259.688L244.688 495H241C240.337 495 239.701 494.737 239.232 494.268C238.763 493.799 238.5 493.163 238.5 492.5C238.5 491.837 238.763 491.201 239.232 490.732C239.701 490.263 240.337 490 241 490H242.613L244.75 487.863V482.5C244.75 482.168 244.882 481.851 245.116 481.616C245.351 481.382 245.668 481.25 246 481.25H247.25C247.582 481.25 247.899 481.382 248.134 481.616C248.368 481.851 248.5 482.168 248.5 482.5V484.113L257.613 475H261C261.663 475 262.299 475.263 262.768 475.732C263.237 476.201 263.5 476.837 263.5 477.5C263.5 478.163 263.237 478.799 262.768 479.268C262.299 479.737 261.663 480 261 480ZM246.625 476.25C247.122 476.25 247.599 476.448 247.951 476.799C248.302 477.151 248.5 477.628 248.5 478.125C248.5 478.622 248.302 479.099 247.951 479.451C247.599 479.802 247.122 480 246.625 480C246.128 480 245.651 479.802 245.299 479.451C244.948 479.099 244.75 478.622 244.75 478.125C244.75 477.628 244.948 477.151 245.299 476.799C245.651 476.448 246.128 476.25 246.625 476.25Z" fill="#AAAAAA"/>
<path d="M390.654 262.561H366.439C366.329 262.561 366.221 262.582 366.12 262.624C366.02 262.666 365.928 262.727 365.851 262.804C365.774 262.882 365.712 262.973 365.671 263.074C365.629 263.175 365.607 263.283 365.607 263.393V287.608C365.607 287.717 365.629 287.825 365.671 287.926C365.712 288.027 365.774 288.119 365.851 288.196C365.928 288.273 366.02 288.334 366.12 288.376C366.221 288.418 366.329 288.44 366.439 288.44H390.654C390.764 288.44 390.872 288.418 390.973 288.376C391.074 288.335 391.166 288.273 391.243 288.196C391.32 288.119 391.381 288.027 391.423 287.926C391.465 287.825 391.486 287.717 391.486 287.608V263.393C391.486 263.283 391.465 263.175 391.423 263.074C391.381 262.973 391.32 262.881 391.243 262.804C391.166 262.727 391.074 262.666 390.973 262.624C390.872 262.582 390.764 262.561 390.654 262.561ZM368.914 265.867H388.18V285.133H368.914V265.867ZM397.183 280.109H396.232V277.556C396.232 277.53 396.227 277.504 396.217 277.48C396.207 277.456 396.193 277.435 396.174 277.416C396.156 277.398 396.134 277.384 396.111 277.374C396.087 277.364 396.061 277.359 396.035 277.359H394.276C394.25 277.359 394.224 277.364 394.2 277.374C394.176 277.384 394.155 277.398 394.137 277.416C394.118 277.435 394.104 277.456 394.094 277.48C394.084 277.504 394.079 277.53 394.079 277.556V280.108H393.128C393.092 280.109 393.057 280.119 393.026 280.138C392.995 280.157 392.97 280.184 392.954 280.216C392.937 280.248 392.93 280.283 392.933 280.319C392.935 280.355 392.947 280.39 392.968 280.419L395.002 283.263C395.02 283.288 395.044 283.308 395.072 283.323C395.1 283.337 395.13 283.344 395.162 283.344C395.193 283.344 395.224 283.337 395.252 283.322C395.279 283.308 395.303 283.287 395.322 283.262L397.343 280.419C397.364 280.39 397.376 280.355 397.379 280.319C397.381 280.283 397.374 280.247 397.357 280.215C397.341 280.183 397.316 280.156 397.285 280.137C397.254 280.119 397.219 280.109 397.183 280.109ZM393.141 270.892H394.092V273.445C394.092 273.553 394.18 273.641 394.289 273.641L396.049 273.641C396.074 273.641 396.1 273.636 396.124 273.626C396.148 273.616 396.169 273.602 396.188 273.584C396.206 273.565 396.22 273.544 396.23 273.52C396.24 273.496 396.245 273.471 396.245 273.445V270.892H397.196C397.232 270.892 397.268 270.882 397.299 270.863C397.329 270.844 397.354 270.817 397.371 270.785C397.387 270.753 397.395 270.717 397.392 270.681C397.39 270.645 397.377 270.61 397.356 270.581L395.322 267.738C395.304 267.713 395.28 267.692 395.252 267.678C395.224 267.663 395.194 267.656 395.163 267.656C395.131 267.656 395.1 267.663 395.072 267.678C395.044 267.692 395.02 267.713 395.002 267.739L392.981 270.581C392.96 270.611 392.948 270.645 392.946 270.681C392.943 270.717 392.951 270.753 392.967 270.785C392.983 270.817 393.008 270.844 393.039 270.863C393.07 270.881 393.105 270.891 393.141 270.892Z" fill="#AAAAAA"/>
<path d="M374.239 271.193C375.142 271.193 375.874 270.461 375.874 269.558C375.874 268.655 375.142 267.922 374.239 267.922C373.336 267.922 372.604 268.655 372.604 269.558C372.604 270.461 373.336 271.193 374.239 271.193Z" fill="#AAAAAA"/>
<path d="M377.335 271.632V271.624H371.477V271.63C371.274 271.63 371.079 271.71 370.935 271.853C370.791 271.997 370.709 272.191 370.708 272.394H370.707V277.027H370.715C370.715 277.21 370.787 277.385 370.916 277.514C371.045 277.642 371.22 277.715 371.402 277.715C371.584 277.715 371.759 277.642 371.888 277.514C372.017 277.385 372.089 277.21 372.089 277.027H372.091V273.793H372.093C372.095 273.736 372.119 273.683 372.159 273.643C372.2 273.604 372.254 273.582 372.311 273.582C372.429 273.582 372.524 273.676 372.529 273.793H372.531V282.274C372.531 282.38 372.552 282.484 372.592 282.582C372.633 282.679 372.692 282.768 372.767 282.843C372.842 282.917 372.93 282.976 373.028 283.017C373.125 283.057 373.23 283.078 373.336 283.078C373.441 283.078 373.546 283.057 373.643 283.016C373.741 282.976 373.83 282.917 373.904 282.842C373.979 282.767 374.038 282.679 374.078 282.581C374.119 282.483 374.139 282.379 374.139 282.273V278.003H374.145C374.145 277.944 374.169 277.887 374.211 277.845C374.252 277.803 374.309 277.78 374.368 277.78C374.427 277.78 374.484 277.803 374.526 277.845C374.567 277.887 374.591 277.944 374.591 278.003H374.596V282.273C374.602 282.482 374.69 282.681 374.84 282.827C374.99 282.973 375.191 283.055 375.401 283.055C375.61 283.055 375.811 282.973 375.961 282.827C376.111 282.681 376.199 282.482 376.205 282.273V273.793C376.204 273.764 376.209 273.734 376.219 273.706C376.23 273.679 376.246 273.654 376.266 273.632C376.287 273.611 376.311 273.594 376.338 273.582C376.366 273.571 376.395 273.565 376.424 273.565C376.454 273.565 376.483 273.571 376.511 273.582C376.538 273.594 376.562 273.611 376.583 273.632C376.603 273.654 376.619 273.679 376.63 273.706C376.64 273.734 376.645 273.764 376.644 273.793V277.028H376.652C376.652 277.21 376.724 277.385 376.853 277.514C376.982 277.643 377.157 277.715 377.339 277.715C377.522 277.715 377.696 277.643 377.825 277.514C377.954 277.385 378.027 277.21 378.027 277.028H378.028V272.395C378.027 272.204 377.956 272.021 377.828 271.88C377.7 271.74 377.525 271.651 377.335 271.632Z" fill="#AAAAAA"/>
<path d="M382.599 271.193C383.502 271.193 384.234 270.461 384.234 269.558C384.234 268.655 383.502 267.922 382.599 267.922C381.696 267.922 380.964 268.655 380.964 269.558C380.964 270.461 381.696 271.193 382.599 271.193Z" fill="#AAAAAA"/>
<path d="M385.695 271.632V271.624H379.837V271.63C379.634 271.63 379.439 271.71 379.295 271.853C379.15 271.997 379.069 272.191 379.068 272.394H379.067V277.027H379.074C379.074 277.21 379.147 277.385 379.276 277.514C379.405 277.642 379.58 277.715 379.762 277.715C379.944 277.715 380.119 277.642 380.248 277.514C380.377 277.385 380.449 277.21 380.449 277.027H380.451V273.793H380.453C380.455 273.736 380.479 273.683 380.519 273.643C380.56 273.604 380.614 273.582 380.671 273.582C380.789 273.582 380.884 273.676 380.889 273.793H380.891V282.274C380.891 282.487 380.976 282.692 381.127 282.843C381.201 282.917 381.29 282.976 381.388 283.017C381.485 283.057 381.59 283.078 381.696 283.078C381.801 283.078 381.906 283.057 382.003 283.016C382.101 282.976 382.189 282.917 382.264 282.842C382.339 282.767 382.398 282.679 382.438 282.581C382.479 282.483 382.499 282.379 382.499 282.273V278.003H382.505C382.505 277.944 382.529 277.887 382.57 277.845C382.612 277.803 382.669 277.78 382.728 277.78C382.787 277.78 382.844 277.803 382.885 277.845C382.927 277.887 382.951 277.944 382.951 278.003H382.956V282.273C382.962 282.482 383.05 282.681 383.2 282.827C383.35 282.973 383.551 283.055 383.76 283.055C383.97 283.055 384.171 282.973 384.321 282.827C384.471 282.681 384.559 282.482 384.565 282.273V273.793C384.564 273.764 384.568 273.734 384.579 273.706C384.589 273.679 384.605 273.654 384.626 273.632C384.646 273.611 384.671 273.594 384.698 273.582C384.725 273.571 384.755 273.565 384.784 273.565C384.814 273.565 384.843 273.571 384.87 273.582C384.898 273.594 384.922 273.611 384.943 273.632C384.963 273.654 384.979 273.679 384.99 273.706C385 273.734 385.005 273.764 385.004 273.793V277.028H385.012C385.012 277.21 385.084 277.385 385.213 277.514C385.342 277.643 385.517 277.715 385.699 277.715C385.881 277.715 386.056 277.643 386.185 277.514C386.314 277.385 386.387 277.21 386.387 277.028H386.388V272.395C386.387 272.204 386.316 272.021 386.188 271.88C386.06 271.74 385.885 271.651 385.695 271.632Z" fill="#AAAAAA"/>
<path d="M334.654 262.561H310.439C310.329 262.561 310.221 262.582 310.12 262.624C310.02 262.666 309.928 262.727 309.851 262.804C309.774 262.882 309.712 262.973 309.671 263.074C309.629 263.175 309.607 263.283 309.607 263.393V287.608C309.607 287.717 309.629 287.825 309.671 287.926C309.712 288.027 309.774 288.119 309.851 288.196C309.928 288.273 310.02 288.334 310.12 288.376C310.221 288.418 310.329 288.44 310.439 288.44H334.654C334.764 288.44 334.872 288.418 334.973 288.376C335.074 288.335 335.166 288.273 335.243 288.196C335.32 288.119 335.381 288.027 335.423 287.926C335.465 287.825 335.486 287.717 335.486 287.608V263.393C335.486 263.283 335.465 263.175 335.423 263.074C335.381 262.973 335.32 262.881 335.243 262.804C335.166 262.727 335.074 262.666 334.973 262.624C334.872 262.582 334.764 262.561 334.654 262.561ZM312.914 265.867H332.18V285.133H312.914V265.867ZM341.183 280.109H340.232V277.556C340.232 277.53 340.227 277.504 340.217 277.48C340.207 277.456 340.193 277.435 340.174 277.416C340.156 277.398 340.134 277.384 340.111 277.374C340.087 277.364 340.061 277.359 340.035 277.359H338.276C338.25 277.359 338.224 277.364 338.2 277.374C338.176 277.384 338.155 277.398 338.137 277.416C338.118 277.435 338.104 277.456 338.094 277.48C338.084 277.504 338.079 277.53 338.079 277.556V280.108H337.128C337.092 280.109 337.057 280.119 337.026 280.138C336.995 280.157 336.97 280.184 336.954 280.216C336.937 280.248 336.93 280.283 336.933 280.319C336.935 280.355 336.947 280.39 336.968 280.419L339.002 283.263C339.02 283.288 339.044 283.308 339.072 283.323C339.1 283.337 339.13 283.344 339.162 283.344C339.193 283.344 339.224 283.337 339.252 283.322C339.279 283.308 339.303 283.287 339.322 283.262L341.343 280.419C341.364 280.39 341.376 280.355 341.379 280.319C341.381 280.283 341.374 280.247 341.357 280.215C341.341 280.183 341.316 280.156 341.285 280.137C341.254 280.119 341.219 280.109 341.183 280.109ZM337.141 270.892H338.092V273.445C338.092 273.553 338.18 273.641 338.289 273.641L340.049 273.641C340.074 273.641 340.1 273.636 340.124 273.626C340.148 273.616 340.169 273.602 340.188 273.584C340.206 273.565 340.22 273.544 340.23 273.52C340.24 273.496 340.245 273.471 340.245 273.445V270.892H341.196C341.232 270.892 341.268 270.882 341.299 270.863C341.329 270.844 341.354 270.817 341.371 270.785C341.387 270.753 341.395 270.717 341.392 270.681C341.39 270.645 341.377 270.61 341.356 270.581L339.322 267.738C339.304 267.713 339.28 267.692 339.252 267.678C339.224 267.663 339.194 267.656 339.163 267.656C339.131 267.656 339.1 267.663 339.072 267.678C339.044 267.692 339.02 267.713 339.002 267.739L336.981 270.581C336.96 270.611 336.948 270.645 336.946 270.681C336.943 270.717 336.951 270.753 336.967 270.785C336.983 270.817 337.008 270.844 337.039 270.863C337.07 270.881 337.105 270.891 337.141 270.892Z" fill="#AAAAAA"/>
<path d="M318.239 271.193C319.142 271.193 319.874 270.461 319.874 269.558C319.874 268.655 319.142 267.922 318.239 267.922C317.336 267.922 316.604 268.655 316.604 269.558C316.604 270.461 317.336 271.193 318.239 271.193Z" fill="#AAAAAA"/>
<path d="M321.335 271.632V271.624H315.477V271.63C315.274 271.63 315.079 271.71 314.935 271.853C314.791 271.997 314.709 272.191 314.708 272.394H314.707V277.027H314.715C314.715 277.21 314.787 277.385 314.916 277.514C315.045 277.642 315.22 277.715 315.402 277.715C315.584 277.715 315.759 277.642 315.888 277.514C316.017 277.385 316.089 277.21 316.089 277.027H316.091V273.793H316.093C316.095 273.736 316.119 273.683 316.159 273.643C316.2 273.604 316.254 273.582 316.311 273.582C316.429 273.582 316.524 273.676 316.529 273.793H316.531V282.274C316.531 282.38 316.552 282.484 316.592 282.582C316.633 282.679 316.692 282.768 316.767 282.843C316.842 282.917 316.93 282.976 317.028 283.017C317.125 283.057 317.23 283.078 317.336 283.078C317.441 283.078 317.546 283.057 317.643 283.016C317.741 282.976 317.83 282.917 317.904 282.842C317.979 282.767 318.038 282.679 318.078 282.581C318.119 282.483 318.139 282.379 318.139 282.273V278.003H318.145C318.145 277.944 318.169 277.887 318.211 277.845C318.252 277.803 318.309 277.78 318.368 277.78C318.427 277.78 318.484 277.803 318.526 277.845C318.567 277.887 318.591 277.944 318.591 278.003H318.596V282.273C318.602 282.482 318.69 282.681 318.84 282.827C318.99 282.973 319.191 283.055 319.401 283.055C319.61 283.055 319.811 282.973 319.961 282.827C320.111 282.681 320.199 282.482 320.205 282.273V273.793C320.204 273.764 320.209 273.734 320.219 273.706C320.23 273.679 320.246 273.654 320.266 273.632C320.287 273.611 320.311 273.594 320.338 273.582C320.366 273.571 320.395 273.565 320.424 273.565C320.454 273.565 320.483 273.571 320.511 273.582C320.538 273.594 320.562 273.611 320.583 273.632C320.603 273.654 320.619 273.679 320.63 273.706C320.64 273.734 320.645 273.764 320.644 273.793V277.028H320.652C320.652 277.21 320.724 277.385 320.853 277.514C320.982 277.643 321.157 277.715 321.339 277.715C321.522 277.715 321.696 277.643 321.825 277.514C321.954 277.385 322.027 277.21 322.027 277.028H322.028V272.395C322.027 272.204 321.956 272.021 321.828 271.88C321.7 271.74 321.525 271.651 321.335 271.632Z" fill="#AAAAAA"/>
<path d="M326.599 271.193C327.502 271.193 328.234 270.461 328.234 269.558C328.234 268.655 327.502 267.922 326.599 267.922C325.696 267.922 324.964 268.655 324.964 269.558C324.964 270.461 325.696 271.193 326.599 271.193Z" fill="#AAAAAA"/>
<path d="M329.695 271.632V271.624H323.837V271.63C323.634 271.63 323.439 271.71 323.295 271.853C323.15 271.997 323.069 272.191 323.068 272.394H323.067V277.027H323.074C323.074 277.21 323.147 277.385 323.276 277.514C323.405 277.642 323.58 277.715 323.762 277.715C323.944 277.715 324.119 277.642 324.248 277.514C324.377 277.385 324.449 277.21 324.449 277.027H324.451V273.793H324.453C324.455 273.736 324.479 273.683 324.519 273.643C324.56 273.604 324.614 273.582 324.671 273.582C324.789 273.582 324.884 273.676 324.889 273.793H324.891V282.274C324.891 282.487 324.976 282.692 325.127 282.843C325.201 282.917 325.29 282.976 325.388 283.017C325.485 283.057 325.59 283.078 325.696 283.078C325.801 283.078 325.906 283.057 326.003 283.016C326.101 282.976 326.189 282.917 326.264 282.842C326.339 282.767 326.398 282.679 326.438 282.581C326.479 282.483 326.499 282.379 326.499 282.273V278.003H326.505C326.505 277.944 326.529 277.887 326.57 277.845C326.612 277.803 326.669 277.78 326.728 277.78C326.787 277.78 326.844 277.803 326.885 277.845C326.927 277.887 326.951 277.944 326.951 278.003H326.956V282.273C326.962 282.482 327.05 282.681 327.2 282.827C327.35 282.973 327.551 283.055 327.76 283.055C327.97 283.055 328.171 282.973 328.321 282.827C328.471 282.681 328.559 282.482 328.565 282.273V273.793C328.564 273.764 328.568 273.734 328.579 273.706C328.589 273.679 328.605 273.654 328.626 273.632C328.646 273.611 328.671 273.594 328.698 273.582C328.725 273.571 328.755 273.565 328.784 273.565C328.814 273.565 328.843 273.571 328.87 273.582C328.898 273.594 328.922 273.611 328.943 273.632C328.963 273.654 328.979 273.679 328.99 273.706C329 273.734 329.005 273.764 329.004 273.793V277.028H329.012C329.012 277.21 329.084 277.385 329.213 277.514C329.342 277.643 329.517 277.715 329.699 277.715C329.881 277.715 330.056 277.643 330.185 277.514C330.314 277.385 330.387 277.21 330.387 277.028H330.388V272.395C330.387 272.204 330.316 272.021 330.188 271.88C330.06 271.74 329.885 271.651 329.695 271.632Z" fill="#AAAAAA"/>
<path d="M461.12 286.7C461.12 287.341 461.519 287.74 462.16 287.74C462.802 287.74 463.2 287.341 463.2 286.7V277.08H464.24V286.7C464.24 287.34 464.639 287.74 465.28 287.74C465.921 287.74 466.32 287.341 466.32 286.7V270.32H466.84V276.203C466.84 277.449 468.403 277.449 468.4 276.203V269.884C468.4 268.508 467.409 267.72 465.8 267.72H461.64C460.174 267.72 459.04 268.354 459.04 269.845V276.56C459.04 277.6 460.6 277.6 460.6 276.56V270.32H461.12V286.7Z" fill="#AAAAAA"/>
<path d="M463.655 266.81C464.84 266.81 465.8 265.85 465.8 264.665C465.8 263.48 464.84 262.52 463.655 262.52C462.47 262.52 461.51 263.48 461.51 264.665C461.51 265.85 462.47 266.81 463.655 266.81Z" fill="#AAAAAA"/>
<path d="M476.655 266.81C477.84 266.81 478.8 265.85 478.8 264.665C478.8 263.48 477.84 262.52 476.655 262.52C475.47 262.52 474.51 263.48 474.51 264.665C474.51 265.85 475.47 266.81 476.655 266.81Z" fill="#AAAAAA"/>
<path d="M481.875 278.9L478.802 270.457L478.784 270.37C478.784 270.247 478.888 270.147 479.017 270.147C479.127 270.147 479.219 270.22 479.243 270.318L481.332 275.78C481.471 276.092 482.042 276.3 482.417 276.3C482.919 276.3 482.971 275.315 482.96 275.26L480.871 270.004C480.69 268.797 479.471 267.72 478.08 267.72H475.358C473.967 267.72 472.658 268.797 472.476 270.004L470.481 275.325C470.435 275.428 470.481 276.333 471.023 276.333C471.445 276.333 472.006 276.169 472.108 275.797L474.123 270.303C474.14 270.259 474.17 270.221 474.209 270.194C474.249 270.166 474.295 270.152 474.343 270.151C474.471 270.151 474.574 270.249 474.574 270.372L474.56 270.45L471.566 278.901C471.56 278.926 471.566 279.525 471.566 279.55C471.566 279.73 472.001 280.2 472.189 280.2H474.12V286.75C474.12 287.291 474.596 287.74 475.16 287.74C475.724 287.74 476.2 287.29 476.2 286.75V279.935C476.2 279.788 477.24 279.793 477.24 279.94V286.7C477.24 287.241 477.717 287.74 478.28 287.74C478.845 287.74 479.32 287.24 479.32 286.7V280.2H481.332C481.52 280.2 481.875 279.73 481.875 279.55C481.875 279.508 481.89 278.936 481.875 278.9Z" fill="#AAAAAA"/>
</svg>
